<svg width="18" height="16" viewBox="0 0 18 16" fill="none" xmlns="http://www.w3.org/2000/svg">
<path id="Arrow 4" d="M1.30664 6.97318C0.71099 6.97318 0.22812 7.45605 0.22812 8.0517C0.22812 8.64735 0.71099 9.13022 1.30664 9.13022V6.97318ZM16.998 8.81433C17.4191 8.39314 17.4191 7.71026 16.998 7.28907L10.1343 0.425402C9.7131 0.00421333 9.03022 0.00421333 8.60903 0.425402C8.18784 0.846591 8.18784 1.52947 8.60903 1.95066L14.7101 8.0517L8.60903 14.1527C8.18784 14.5739 8.18784 15.2568 8.60903 15.678C9.03022 16.0992 9.7131 16.0992 10.1343 15.678L16.998 8.81433ZM1.30664 9.13022H16.2353V6.97318H1.30664V9.13022Z" fill="white"/>
</svg>
