<svg width="189" height="210" viewBox="0 0 189 210" fill="none" xmlns="http://www.w3.org/2000/svg">
<g filter="url(#filter0_iii_1_626)">
<path fill-rule="evenodd" clip-rule="evenodd" d="M56.9655 174.386C46.2425 165.321 39.7873 151.942 36.851 136.434C35.5661 129.648 34.9551 122.455 34.9551 115.036C34.9551 83.3791 52.5821 55.4397 76.8523 46.0146C76.8817 46.0032 76.9111 45.9919 76.9405 45.9808C82.2052 43.962 86.8007 43.9769 92.9539 43.9969L92.954 43.9969L92.9541 43.9969L92.9542 43.9969L92.9543 43.9969L92.9544 43.9969L92.9546 43.9969L92.9547 43.9969L92.9548 43.9969L92.9549 43.9969L92.955 43.9969C93.3446 43.9982 93.7405 43.9995 94.1431 44.0002L94.1436 44.0001C100.859 41.362 108.869 44.2399 115.272 47.1418C126.712 52.3219 136.514 61.6751 143.457 73.5434C149.422 83.739 153.276 95.7909 154.243 108.648C154.402 110.757 154.483 112.888 154.483 115.036C154.483 147.335 142.901 175.372 114.557 184.049C112.763 189.653 105.466 193.848 96.7365 193.848C88.633 193.848 81.7636 190.233 79.3849 185.232C70.4569 183.259 63.0289 179.512 56.9655 174.386Z" fill="url(#paint0_radial_1_626)"/>
</g>
<g filter="url(#filter1_i_1_626)">
<path d="M86.0835 115.857C87.6994 115.857 89.0411 114.532 88.6943 112.954C88.144 110.449 86.888 108.131 85.0461 106.289C82.5084 103.751 79.0666 102.326 75.4778 102.326C71.8891 102.326 68.4473 103.751 65.9096 106.289C64.1627 108.036 62.9427 110.211 62.3521 112.568C61.906 114.348 63.4338 115.857 65.2686 115.857C66.9888 115.857 68.325 114.399 69.0562 112.842C69.402 112.105 69.875 111.427 70.4613 110.841C71.7917 109.51 73.5963 108.763 75.4778 108.763C77.3594 108.763 79.1639 109.51 80.4944 110.841C80.9855 111.332 81.3971 111.887 81.7211 112.488C82.6421 114.194 84.1443 115.857 86.0835 115.857Z" fill="#C4C4C4"/>
<path d="M86.0835 115.857C87.6994 115.857 89.0411 114.532 88.6943 112.954C88.144 110.449 86.888 108.131 85.0461 106.289C82.5084 103.751 79.0666 102.326 75.4778 102.326C71.8891 102.326 68.4473 103.751 65.9096 106.289C64.1627 108.036 62.9427 110.211 62.3521 112.568C61.906 114.348 63.4338 115.857 65.2686 115.857C66.9888 115.857 68.325 114.399 69.0562 112.842C69.402 112.105 69.875 111.427 70.4613 110.841C71.7917 109.51 73.5963 108.763 75.4778 108.763C77.3594 108.763 79.1639 109.51 80.4944 110.841C80.9855 111.332 81.3971 111.887 81.7211 112.488C82.6421 114.194 84.1443 115.857 86.0835 115.857Z" fill="#221725"/>
</g>
<g filter="url(#filter2_i_1_626)">
<path d="M124.129 115.857C125.745 115.857 127.087 114.532 126.74 112.954C126.19 110.449 124.934 108.131 123.092 106.289C120.554 103.751 117.113 102.326 113.524 102.326C109.935 102.326 106.493 103.751 103.955 106.289C102.209 108.036 100.989 110.211 100.398 112.568C99.9519 114.348 101.48 115.857 103.315 115.857C105.035 115.857 106.371 114.399 107.102 112.842C107.448 112.105 107.921 111.427 108.507 110.841C109.838 109.51 111.642 108.763 113.524 108.763C115.405 108.763 117.21 109.51 118.54 110.841C119.031 111.332 119.443 111.887 119.767 112.488C120.688 114.194 122.19 115.857 124.129 115.857Z" fill="#C4C4C4"/>
<path d="M124.129 115.857C125.745 115.857 127.087 114.532 126.74 112.954C126.19 110.449 124.934 108.131 123.092 106.289C120.554 103.751 117.113 102.326 113.524 102.326C109.935 102.326 106.493 103.751 103.955 106.289C102.209 108.036 100.989 110.211 100.398 112.568C99.9519 114.348 101.48 115.857 103.315 115.857C105.035 115.857 106.371 114.399 107.102 112.842C107.448 112.105 107.921 111.427 108.507 110.841C109.838 109.51 111.642 108.763 113.524 108.763C115.405 108.763 117.21 109.51 118.54 110.841C119.031 111.332 119.443 111.887 119.767 112.488C120.688 114.194 122.19 115.857 124.129 115.857Z" fill="#221725"/>
</g>
<mask id="mask0_1_626" style="mask-type:alpha" maskUnits="userSpaceOnUse" x="70" y="119" width="49" height="27">
<path d="M110.149 145.244C112.364 145.244 113.472 145.244 114.872 144.581C116.696 143.719 118.712 140.698 118.811 138.683C118.886 137.136 118.66 136.591 118.207 135.5C116.942 132.449 115.081 129.644 112.7 127.263C107.931 122.494 101.464 119.815 94.7196 119.815C87.9755 119.815 81.5076 122.494 76.7389 127.263C74.2076 129.794 72.265 132.804 70.9995 136.08C70.5601 137.218 70.3404 137.786 70.4374 139.216C70.5654 141.103 72.441 143.839 74.1551 144.638C75.4541 145.244 76.5244 145.244 78.6651 145.244L94.7196 145.244L110.149 145.244Z" fill="url(#paint1_linear_1_626)"/>
</mask>
<g mask="url(#mask0_1_626)">
<g filter="url(#filter3_i_1_626)">
<path d="M110.149 145.244C112.364 145.244 113.472 145.244 114.872 144.581C116.696 143.719 118.712 140.698 118.811 138.683C118.886 137.136 118.66 136.591 118.207 135.5C116.942 132.449 115.081 129.644 112.7 127.263C107.931 122.494 101.464 119.815 94.7196 119.815C87.9755 119.815 81.5076 122.494 76.7389 127.263C74.2076 129.794 72.265 132.804 70.9995 136.08C70.5601 137.218 70.3404 137.786 70.4374 139.216C70.5654 141.103 72.441 143.839 74.1551 144.638C75.4541 145.244 76.5244 145.244 78.6651 145.244L94.7196 145.244L110.149 145.244Z" fill="url(#paint2_linear_1_626)"/>
</g>
<g filter="url(#filter4_i_1_626)">
<path d="M119.297 121.31C120.259 123.516 118.709 126.043 116.301 126.043L73.5211 126.043C71.1716 126.043 68.6489 124.104 69.8025 122.057C70.7052 120.456 70.8412 117.739 72.6796 117.739L117.773 117.739C119.107 117.739 118.764 120.087 119.297 121.31Z" fill="white"/>
</g>
</g>
<g filter="url(#filter5_dii_1_626)">
<path d="M55.6705 95.0099C55.6705 96.4516 56.8443 97.6382 58.2733 97.4469C59.9539 97.2218 61.602 96.7792 63.1753 96.1275C65.5546 95.142 67.7165 93.6975 69.5376 91.8764C71.3586 90.0554 72.8031 87.8935 73.7887 85.5142C74.4404 83.9408 74.8829 82.2928 75.108 80.6122C75.2993 79.1832 74.1127 78.0094 72.671 78.0094C71.2293 78.0094 70.0845 79.1875 69.8244 80.6056C69.6418 81.601 69.3543 82.5767 68.9652 83.5162C68.242 85.2621 67.182 86.8484 65.8458 88.1847C64.5096 89.5209 62.9232 90.5809 61.1773 91.304C60.2379 91.6932 59.2621 91.9807 58.2667 92.1633C56.8487 92.4234 55.6705 93.5681 55.6705 95.0099Z" fill="url(#paint3_linear_1_626)"/>
</g>
<g filter="url(#filter6_dii_1_626)">
<path d="M132.545 95.0098C132.545 96.4515 131.371 97.6381 129.943 97.4468C128.262 97.2217 126.614 96.7792 125.041 96.1275C122.661 95.1419 120.499 93.6974 118.678 91.8764C116.857 90.0553 115.413 87.8934 114.427 85.5141C113.775 83.9408 113.333 82.2927 113.108 80.6121C112.916 79.1831 114.103 78.0093 115.545 78.0093C116.987 78.0093 118.131 79.1875 118.391 80.6055C118.574 81.6009 118.862 82.5767 119.251 83.5161C119.974 85.262 121.034 86.8484 122.37 88.1846C123.706 89.5208 125.293 90.5808 127.038 91.304C127.978 91.6931 128.954 91.9806 129.949 92.1632C131.367 92.4233 132.545 93.5681 132.545 95.0098Z" fill="url(#paint4_linear_1_626)"/>
</g>
<g filter="url(#filter7_i_1_626)">
<path d="M89.8273 39.7839C97.526 34.3706 94.3705 22.0936 87.1588 15.7397C79.9538 9.36494 69.4408 6.07119 68.445 6.77596C67.4493 7.48073 64.8205 21.4143 71.0067 31.1539C77.1929 40.8935 85.1229 43.0966 89.8273 39.7839Z" fill="url(#paint5_linear_1_626)"/>
</g>
<path d="M89.5396 39.5653L90.6171 38.7487C94.0529 43.32 96.0136 45.0624 96.0344 45.0691L95.1463 46.0842C95.0625 46.0229 93.0739 44.2601 89.5396 39.5653Z" fill="#318C1C"/>
<path d="M80.7779 15.2668C80.6999 15.1153 80.7044 14.9214 80.7995 14.7678C80.956 14.5304 81.2668 14.4574 81.4971 14.6C82.9837 15.5239 85.1437 17.1461 87.0444 19.6512C89.3323 22.671 90.6427 26.1945 90.9469 30.132C90.9711 30.4157 90.7592 30.6469 90.4755 30.6711C90.1918 30.6954 89.9607 30.4834 89.9365 30.1997C89.3079 21.8124 84.0519 17.3603 80.9811 15.4583C80.8835 15.404 80.8134 15.3356 80.7779 15.2668Z" fill="url(#paint6_linear_1_626)"/>
<g filter="url(#filter8_f_1_626)">
<ellipse cx="95.8907" cy="45.7927" rx="4.54204" ry="1.20565" fill="#744500" fill-opacity="0.6"/>
</g>
<g filter="url(#filter9_f_1_626)">
<path d="M79.731 183.679C81.8888 191.61 92.659 193.304 97.9199 193.849C111.52 193.849 117.712 184.865 119.109 180.373C145.001 172.307 154.231 138.663 156.913 125.131C135.747 156.271 76.2787 165.278 49.2588 164.074C49.9497 169.907 71.095 180.444 79.731 183.679Z" fill="#EBAD1E"/>
</g>
<path d="M70.7525 160.687C47.3697 160.687 36.9613 143.971 34.4671 132.963C34.2753 132.124 34.8029 131.261 35.6423 131.069C36.4817 130.877 37.345 131.405 37.5369 132.244C40.103 143.516 51.8304 161.359 79.4101 156.754C80.2735 156.61 81.0889 157.186 81.2328 158.049C81.3767 158.912 80.8011 159.728 79.9377 159.872C76.6761 160.447 73.6064 160.687 70.7525 160.687Z" fill="#1D1D1D"/>
<path d="M77.805 164.716C73.2004 164.716 70.6822 162.366 70.2505 159.92C69.7949 157.402 71.4257 153.972 77.4932 152.581C78.3326 152.389 79.196 152.917 79.3878 153.756C79.5797 154.596 79.0521 155.459 78.2127 155.651C74.5674 156.49 73.1524 158.169 73.3682 159.368C73.6081 160.735 75.8864 161.91 79.2919 161.479C80.1553 161.383 80.9467 161.982 81.0426 162.846C81.1625 163.709 80.539 164.5 79.6756 164.596C79.0281 164.668 78.4046 164.716 77.805 164.716Z" fill="#1D1D1D"/>
<path d="M118.165 160.688C115.311 160.688 112.265 160.448 109.004 159.897C108.14 159.753 107.565 158.937 107.709 158.074C107.852 157.211 108.668 156.635 109.531 156.779C137.111 161.36 148.838 143.517 151.404 132.269C151.596 131.43 152.436 130.878 153.299 131.094C154.138 131.286 154.69 132.125 154.474 132.988C151.956 143.972 141.548 160.688 118.165 160.688Z" fill="#1D1D1D"/>
<path d="M111.116 164.716C110.516 164.716 109.893 164.668 109.245 164.596C108.382 164.476 107.758 163.709 107.878 162.846C107.998 161.982 108.765 161.359 109.629 161.479C113.034 161.91 115.313 160.735 115.552 159.368C115.768 158.169 114.329 156.49 110.708 155.651C109.869 155.459 109.341 154.62 109.533 153.756C109.725 152.917 110.588 152.389 111.427 152.581C117.495 153.972 119.126 157.426 118.67 159.92C118.238 162.366 115.72 164.716 111.116 164.716Z" fill="#1D1D1D"/>
<ellipse cx="3.59182" cy="2.44077" rx="3.59182" ry="2.44077" transform="matrix(0.769784 0.638304 0.638304 -0.769784 127.055 69.7333)" fill="#878787" fill-opacity="0.2"/>
<ellipse cx="3.59182" cy="2.44077" rx="3.59182" ry="2.44077" transform="matrix(0.769784 0.638304 0.638304 -0.769784 139.54 83.1107)" fill="#878787" fill-opacity="0.2"/>
<ellipse cx="47.0475" cy="86.0895" rx="3.59182" ry="2.44077" transform="rotate(-39.6655 47.0475 86.0895)" fill="#B77D00" fill-opacity="0.37"/>
<ellipse cx="57.6237" cy="76.3782" rx="3.59182" ry="2.44077" transform="rotate(-39.6655 57.6237 76.3782)" fill="#B77D00" fill-opacity="0.37"/>
<ellipse cx="67.0377" cy="65.9741" rx="3.59182" ry="2.44077" transform="rotate(-39.6655 67.0377 65.9741)" fill="#B77D00" fill-opacity="0.37"/>
<ellipse cx="55.693" cy="64.4866" rx="3.59182" ry="2.44077" transform="rotate(-39.6655 55.693 64.4866)" fill="#B77D00" fill-opacity="0.37"/>
<defs>
<filter id="filter0_iii_1_626" x="31.2296" y="36.8646" width="130.366" height="162.402" filterUnits="userSpaceOnUse" color-interpolation-filters="sRGB">
<feFlood flood-opacity="0" result="BackgroundImageFix"/>
<feBlend mode="normal" in="SourceGraphic" in2="BackgroundImageFix" result="shape"/>
<feColorMatrix in="SourceAlpha" type="matrix" values="0 0 0 0 0 0 0 0 0 0 0 0 0 0 0 0 0 0 127 0" result="hardAlpha"/>
<feMorphology radius="2.70941" operator="erode" in="SourceAlpha" result="effect1_innerShadow_1_626"/>
<feOffset dx="7.11221" dy="4.40279"/>
<feGaussianBlur stdDeviation="8.12823"/>
<feComposite in2="hardAlpha" operator="arithmetic" k2="-1" k3="1"/>
<feColorMatrix type="matrix" values="0 0 0 0 0.682806 0 0 0 0 0.0652778 0 0 0 0 0.783333 0 0 0 0.14 0"/>
<feBlend mode="normal" in2="shape" result="effect1_innerShadow_1_626"/>
<feColorMatrix in="SourceAlpha" type="matrix" values="0 0 0 0 0 0 0 0 0 0 0 0 0 0 0 0 0 0 127 0" result="hardAlpha"/>
<feOffset dy="-6.09618"/>
<feGaussianBlur stdDeviation="5.24949"/>
<feComposite in2="hardAlpha" operator="arithmetic" k2="-1" k3="1"/>
<feColorMatrix type="matrix" values="0 0 0 0 0.943639 0 0 0 0 0.223611 0 0 0 0 0.958333 0 0 0 0.44 0"/>
<feBlend mode="normal" in2="effect1_innerShadow_1_626" result="effect2_innerShadow_1_626"/>
<feColorMatrix in="SourceAlpha" type="matrix" values="0 0 0 0 0 0 0 0 0 0 0 0 0 0 0 0 0 0 127 0" result="hardAlpha"/>
<feOffset dx="-3.72544" dy="5.41882"/>
<feGaussianBlur stdDeviation="5.24949"/>
<feComposite in2="hardAlpha" operator="arithmetic" k2="-1" k3="1"/>
<feColorMatrix type="matrix" values="0 0 0 0 1 0 0 0 0 1 0 0 0 0 1 0 0 0 0.59 0"/>
<feBlend mode="normal" in2="effect2_innerShadow_1_626" result="effect3_innerShadow_1_626"/>
</filter>
<filter id="filter1_i_1_626" x="62.2734" y="102.326" width="26.4756" height="13.5316" filterUnits="userSpaceOnUse" color-interpolation-filters="sRGB">
<feFlood flood-opacity="0" result="BackgroundImageFix"/>
<feBlend mode="normal" in="SourceGraphic" in2="BackgroundImageFix" result="shape"/>
<feColorMatrix in="SourceAlpha" type="matrix" values="0 0 0 0 0 0 0 0 0 0 0 0 0 0 0 0 0 0 127 0" result="hardAlpha"/>
<feMorphology radius="10.3742" operator="dilate" in="SourceAlpha" result="effect1_innerShadow_1_626"/>
<feOffset dx="3.60842" dy="-2.74553"/>
<feGaussianBlur stdDeviation="4.05947"/>
<feComposite in2="hardAlpha" operator="arithmetic" k2="-1" k3="1"/>
<feColorMatrix type="matrix" values="0 0 0 0 0.462111 0 0 0 0 0.203767 0 0 0 0 0.504167 0 0 0 0.35 0"/>
<feBlend mode="normal" in2="shape" result="effect1_innerShadow_1_626"/>
</filter>
<filter id="filter2_i_1_626" x="100.319" y="102.326" width="26.4756" height="13.5316" filterUnits="userSpaceOnUse" color-interpolation-filters="sRGB">
<feFlood flood-opacity="0" result="BackgroundImageFix"/>
<feBlend mode="normal" in="SourceGraphic" in2="BackgroundImageFix" result="shape"/>
<feColorMatrix in="SourceAlpha" type="matrix" values="0 0 0 0 0 0 0 0 0 0 0 0 0 0 0 0 0 0 127 0" result="hardAlpha"/>
<feMorphology radius="10.3742" operator="dilate" in="SourceAlpha" result="effect1_innerShadow_1_626"/>
<feOffset dx="3.60842" dy="-3.52997"/>
<feGaussianBlur stdDeviation="4.05947"/>
<feComposite in2="hardAlpha" operator="arithmetic" k2="-1" k3="1"/>
<feColorMatrix type="matrix" values="0 0 0 0 0.462111 0 0 0 0 0.203767 0 0 0 0 0.504167 0 0 0 0.35 0"/>
<feBlend mode="normal" in2="shape" result="effect1_innerShadow_1_626"/>
</filter>
<filter id="filter3_i_1_626" x="70.415" y="119.815" width="48.4102" height="27.1525" filterUnits="userSpaceOnUse" color-interpolation-filters="sRGB">
<feFlood flood-opacity="0" result="BackgroundImageFix"/>
<feBlend mode="normal" in="SourceGraphic" in2="BackgroundImageFix" result="shape"/>
<feColorMatrix in="SourceAlpha" type="matrix" values="0 0 0 0 0 0 0 0 0 0 0 0 0 0 0 0 0 0 127 0" result="hardAlpha"/>
<feOffset dy="1.72397"/>
<feGaussianBlur stdDeviation="3.44794"/>
<feComposite in2="hardAlpha" operator="arithmetic" k2="-1" k3="1"/>
<feColorMatrix type="matrix" values="0 0 0 0 0 0 0 0 0 0 0 0 0 0 0 0 0 0 0.25 0"/>
<feBlend mode="normal" in2="shape" result="effect1_innerShadow_1_626"/>
</filter>
<filter id="filter4_i_1_626" x="69.5137" y="116.446" width="50.0723" height="9.59618" filterUnits="userSpaceOnUse" color-interpolation-filters="sRGB">
<feFlood flood-opacity="0" result="BackgroundImageFix"/>
<feBlend mode="normal" in="SourceGraphic" in2="BackgroundImageFix" result="shape"/>
<feColorMatrix in="SourceAlpha" type="matrix" values="0 0 0 0 0 0 0 0 0 0 0 0 0 0 0 0 0 0 127 0" result="hardAlpha"/>
<feOffset dy="-1.29298"/>
<feGaussianBlur stdDeviation="3.44794"/>
<feComposite in2="hardAlpha" operator="arithmetic" k2="-1" k3="1"/>
<feColorMatrix type="matrix" values="0 0 0 0 0 0 0 0 0 0 0 0 0 0 0 0 0 0 0.47 0"/>
<feBlend mode="normal" in2="shape" result="effect1_innerShadow_1_626"/>
</filter>
<filter id="filter5_dii_1_626" x="47.4343" y="73.3028" width="40.6369" height="40.6376" filterUnits="userSpaceOnUse" color-interpolation-filters="sRGB">
<feFlood flood-opacity="0" result="BackgroundImageFix"/>
<feColorMatrix in="SourceAlpha" type="matrix" values="0 0 0 0 0 0 0 0 0 0 0 0 0 0 0 0 0 0 127 0" result="hardAlpha"/>
<feOffset dx="2.35331" dy="5.88329"/>
<feGaussianBlur stdDeviation="5.29496"/>
<feColorMatrix type="matrix" values="0 0 0 0 0.0313726 0 0 0 0 0.02 0 0 0 0 0.0352941 0 0 0 0.25 0"/>
<feBlend mode="normal" in2="BackgroundImageFix" result="effect1_dropShadow_1_626"/>
<feBlend mode="normal" in="SourceGraphic" in2="effect1_dropShadow_1_626" result="shape"/>
<feColorMatrix in="SourceAlpha" type="matrix" values="0 0 0 0 0 0 0 0 0 0 0 0 0 0 0 0 0 0 127 0" result="hardAlpha"/>
<feOffset dy="1.7432"/>
<feGaussianBlur stdDeviation="0.871598"/>
<feComposite in2="hardAlpha" operator="arithmetic" k2="-1" k3="1"/>
<feColorMatrix type="matrix" values="0 0 0 0 0.181961 0 0 0 0 0.116 0 0 0 0 0.204706 0 0 0 1 0"/>
<feBlend mode="normal" in2="shape" result="effect2_innerShadow_1_626"/>
<feColorMatrix in="SourceAlpha" type="matrix" values="0 0 0 0 0 0 0 0 0 0 0 0 0 0 0 0 0 0 127 0" result="hardAlpha"/>
<feOffset dy="-1.7432"/>
<feGaussianBlur stdDeviation="0.871598"/>
<feComposite in2="hardAlpha" operator="arithmetic" k2="-1" k3="1"/>
<feColorMatrix type="matrix" values="0 0 0 0 0.12549 0 0 0 0 0.08 0 0 0 0 0.141176 0 0 0 1 0"/>
<feBlend mode="normal" in2="effect2_innerShadow_1_626" result="effect3_innerShadow_1_626"/>
</filter>
<filter id="filter6_dii_1_626" x="104.851" y="73.3027" width="40.6369" height="40.6376" filterUnits="userSpaceOnUse" color-interpolation-filters="sRGB">
<feFlood flood-opacity="0" result="BackgroundImageFix"/>
<feColorMatrix in="SourceAlpha" type="matrix" values="0 0 0 0 0 0 0 0 0 0 0 0 0 0 0 0 0 0 127 0" result="hardAlpha"/>
<feOffset dx="2.35331" dy="5.88329"/>
<feGaussianBlur stdDeviation="5.29496"/>
<feColorMatrix type="matrix" values="0 0 0 0 0.0313726 0 0 0 0 0.02 0 0 0 0 0.0352941 0 0 0 0.25 0"/>
<feBlend mode="normal" in2="BackgroundImageFix" result="effect1_dropShadow_1_626"/>
<feBlend mode="normal" in="SourceGraphic" in2="effect1_dropShadow_1_626" result="shape"/>
<feColorMatrix in="SourceAlpha" type="matrix" values="0 0 0 0 0 0 0 0 0 0 0 0 0 0 0 0 0 0 127 0" result="hardAlpha"/>
<feOffset dy="1.7432"/>
<feGaussianBlur stdDeviation="0.871598"/>
<feComposite in2="hardAlpha" operator="arithmetic" k2="-1" k3="1"/>
<feColorMatrix type="matrix" values="0 0 0 0 0.181961 0 0 0 0 0.116 0 0 0 0 0.204706 0 0 0 1 0"/>
<feBlend mode="normal" in2="shape" result="effect2_innerShadow_1_626"/>
<feColorMatrix in="SourceAlpha" type="matrix" values="0 0 0 0 0 0 0 0 0 0 0 0 0 0 0 0 0 0 127 0" result="hardAlpha"/>
<feOffset dy="-1.7432"/>
<feGaussianBlur stdDeviation="0.871598"/>
<feComposite in2="hardAlpha" operator="arithmetic" k2="-1" k3="1"/>
<feColorMatrix type="matrix" values="0 0 0 0 0.12549 0 0 0 0 0.08 0 0 0 0 0.141176 0 0 0 1 0"/>
<feBlend mode="normal" in2="effect2_innerShadow_1_626" result="effect3_innerShadow_1_626"/>
</filter>
<filter id="filter7_i_1_626" x="67.0322" y="6.68216" width="30.0474" height="35.9371" filterUnits="userSpaceOnUse" color-interpolation-filters="sRGB">
<feFlood flood-opacity="0" result="BackgroundImageFix"/>
<feBlend mode="normal" in="SourceGraphic" in2="BackgroundImageFix" result="shape"/>
<feColorMatrix in="SourceAlpha" type="matrix" values="0 0 0 0 0 0 0 0 0 0 0 0 0 0 0 0 0 0 127 0" result="hardAlpha"/>
<feOffset dx="2.78767" dy="1.39384"/>
<feGaussianBlur stdDeviation="3.87176"/>
<feComposite in2="hardAlpha" operator="arithmetic" k2="-1" k3="1"/>
<feColorMatrix type="matrix" values="0 0 0 0 0 0 0 0 0 0 0 0 0 0 0 0 0 0 0.25 0"/>
<feBlend mode="normal" in2="shape" result="effect1_innerShadow_1_626"/>
</filter>
<filter id="filter8_f_1_626" x="89.7437" y="42.9821" width="12.2939" height="5.62124" filterUnits="userSpaceOnUse" color-interpolation-filters="sRGB">
<feFlood flood-opacity="0" result="BackgroundImageFix"/>
<feBlend mode="normal" in="SourceGraphic" in2="BackgroundImageFix" result="shape"/>
<feGaussianBlur stdDeviation="0.802485" result="effect1_foregroundBlur_1_626"/>
</filter>
<filter id="filter9_f_1_626" x="33.2091" y="109.081" width="139.754" height="100.817" filterUnits="userSpaceOnUse" color-interpolation-filters="sRGB">
<feFlood flood-opacity="0" result="BackgroundImageFix"/>
<feBlend mode="normal" in="SourceGraphic" in2="BackgroundImageFix" result="shape"/>
<feGaussianBlur stdDeviation="8.02485" result="effect1_foregroundBlur_1_626"/>
</filter>
<radialGradient id="paint0_radial_1_626" cx="0" cy="0" r="1" gradientUnits="userSpaceOnUse" gradientTransform="translate(94.6599 171.938) rotate(84.5862) scale(22.0089 34.0873)">
<stop stop-color="#FFBB0C"/>
<stop offset="1" stop-color="#FFC907"/>
</radialGradient>
<linearGradient id="paint1_linear_1_626" x1="94.7196" y1="119.815" x2="99.909" y2="149.568" gradientUnits="userSpaceOnUse">
<stop stop-color="#FB39A2"/>
<stop offset="1" stop-color="#C520FF"/>
</linearGradient>
<linearGradient id="paint2_linear_1_626" x1="94.7196" y1="119.815" x2="110.288" y2="152.682" gradientUnits="userSpaceOnUse">
<stop stop-color="#3A2EC0"/>
<stop offset="1" stop-color="#FF20C1"/>
</linearGradient>
<linearGradient id="paint3_linear_1_626" x1="55.6705" y1="58.3984" x2="55.6705" y2="97.6203" gradientUnits="userSpaceOnUse">
<stop stop-color="#2D1D32"/>
<stop offset="1" stop-color="#221526"/>
</linearGradient>
<linearGradient id="paint4_linear_1_626" x1="132.545" y1="58.3984" x2="132.545" y2="97.6203" gradientUnits="userSpaceOnUse">
<stop stop-color="#2D1D32"/>
<stop offset="1" stop-color="#221526"/>
</linearGradient>
<linearGradient id="paint5_linear_1_626" x1="89.851" y1="17.7982" x2="69.4465" y2="28.3128" gradientUnits="userSpaceOnUse">
<stop stop-color="#008B0E"/>
<stop offset="1" stop-color="#038B00" stop-opacity="0"/>
</linearGradient>
<linearGradient id="paint6_linear_1_626" x1="81.6973" y1="14.9014" x2="90.9753" y2="28.6458" gradientUnits="userSpaceOnUse">
<stop stop-color="white"/>
<stop offset="1" stop-color="white" stop-opacity="0"/>
</linearGradient>
</defs>
</svg>
