<svg width="189" height="211" viewBox="0 0 189 211" fill="none" xmlns="http://www.w3.org/2000/svg">
<g filter="url(#filter0_iii_1_604)">
<path fill-rule="evenodd" clip-rule="evenodd" d="M56.6989 174.386C45.9759 165.321 39.5207 151.942 36.5844 136.434C35.2995 129.648 34.6885 122.455 34.6885 115.036C34.6885 83.3791 52.3155 55.4397 76.5857 46.0146C76.6151 46.0032 76.6445 45.9919 76.6739 45.9808C81.9386 43.962 86.5341 43.9769 92.6873 43.9969L92.6874 43.9969L92.6875 43.9969L92.6876 43.9969L92.6877 43.9969L92.6878 43.9969L92.688 43.9969L92.6881 43.9969L92.6882 43.9969L92.6883 43.9969L92.6884 43.9969C93.078 43.9982 93.4739 43.9995 93.8765 44.0002L93.877 44.0001C100.592 41.362 108.602 44.2399 115.005 47.1418C126.445 52.3219 136.248 61.6751 143.191 73.5434C149.155 83.739 153.009 95.7909 153.977 108.648C154.136 110.757 154.217 112.888 154.217 115.036C154.217 147.335 142.634 175.372 114.291 184.049C112.496 189.653 105.199 193.848 96.4699 193.848C88.3664 193.848 81.497 190.233 79.1183 185.232C70.1903 183.259 62.7623 179.512 56.6989 174.386Z" fill="url(#paint0_radial_1_604)"/>
</g>
<ellipse cx="50.1979" cy="84.1421" rx="3.59182" ry="2.44077" transform="rotate(-39.6655 50.1979 84.1421)" fill="#B77D00" fill-opacity="0.37"/>
<ellipse cx="60.7741" cy="74.4308" rx="3.59182" ry="2.44077" transform="rotate(-39.6655 60.7741 74.4308)" fill="#B77D00" fill-opacity="0.37"/>
<ellipse cx="70.1881" cy="64.0267" rx="3.59182" ry="2.44077" transform="rotate(-39.6655 70.1881 64.0267)" fill="#B77D00" fill-opacity="0.37"/>
<ellipse cx="58.8434" cy="62.5393" rx="3.59182" ry="2.44077" transform="rotate(-39.6655 58.8434 62.5393)" fill="#B77D00" fill-opacity="0.37"/>
<g filter="url(#filter1_di_1_604)">
<path fill-rule="evenodd" clip-rule="evenodd" d="M121.183 122.996C124.925 120.355 127.368 115.998 127.368 111.071C127.368 103.015 120.838 96.4843 112.782 96.4843C104.726 96.4843 98.1953 103.015 98.1953 111.071C98.1953 115.895 100.537 120.172 104.146 122.827C106.351 120.76 109.316 119.494 112.576 119.494C115.925 119.494 118.962 120.829 121.183 122.996Z" fill="#FAFAFA"/>
</g>
<g filter="url(#filter2_i_1_604)">
<rect x="105.022" y="103.312" width="15.5097" height="15.5097" rx="7.75485" fill="#2C2F36"/>
</g>
<g filter="url(#filter3_di_1_604)">
<path fill-rule="evenodd" clip-rule="evenodd" d="M83.7917 122.996C87.533 120.355 89.9765 115.998 89.9765 111.071C89.9765 103.015 83.4459 96.4842 75.3901 96.4842C67.3343 96.4842 60.8037 103.015 60.8037 111.071C60.8037 115.895 63.1457 120.172 66.7547 122.827C68.9593 120.76 71.9243 119.494 75.1851 119.494C78.5336 119.494 81.5702 120.829 83.7917 122.996Z" fill="#FAFAFA"/>
</g>
<g filter="url(#filter4_i_1_604)">
<rect x="67.6309" y="103.312" width="15.5097" height="15.5097" rx="7.75485" fill="#2C2F36"/>
</g>
<g filter="url(#filter5_diiii_1_604)">
<mask id="path-10-inside-1_1_604" fill="white">
<path d="M117.285 122.575C119.223 122.575 120.82 124.155 120.53 126.07C120.218 128.133 119.63 130.155 118.776 132.088C117.444 135.104 115.492 137.845 113.031 140.153C110.57 142.461 107.648 144.292 104.433 145.542C101.218 146.791 97.7714 147.434 94.2911 147.434C90.8108 147.434 87.3646 146.791 84.1492 145.542C80.9338 144.292 78.0123 142.461 75.5513 140.153C73.0904 137.845 71.1383 135.104 69.8064 132.088C68.9527 130.155 68.3645 128.133 68.0523 126.07C67.7623 124.155 69.3597 122.575 71.2971 122.575C73.2345 122.575 74.7696 124.162 75.1623 126.059C75.4107 127.259 75.7873 128.435 76.2884 129.57C77.2676 131.787 78.703 133.802 80.5124 135.499C82.3219 137.197 84.47 138.543 86.8341 139.462C89.1983 140.38 91.7322 140.853 94.2911 140.853C96.85 140.853 99.3839 140.38 101.748 139.462C104.112 138.543 106.26 137.197 108.07 135.499C109.879 133.802 111.315 131.787 112.294 129.57C112.795 128.435 113.172 127.259 113.42 126.059C113.813 124.162 115.348 122.575 117.285 122.575Z"/>
</mask>
<path d="M117.285 122.575C119.223 122.575 120.82 124.155 120.53 126.07C120.218 128.133 119.63 130.155 118.776 132.088C117.444 135.104 115.492 137.845 113.031 140.153C110.57 142.461 107.648 144.292 104.433 145.542C101.218 146.791 97.7714 147.434 94.2911 147.434C90.8108 147.434 87.3646 146.791 84.1492 145.542C80.9338 144.292 78.0123 142.461 75.5513 140.153C73.0904 137.845 71.1383 135.104 69.8064 132.088C68.9527 130.155 68.3645 128.133 68.0523 126.07C67.7623 124.155 69.3597 122.575 71.2971 122.575C73.2345 122.575 74.7696 124.162 75.1623 126.059C75.4107 127.259 75.7873 128.435 76.2884 129.57C77.2676 131.787 78.703 133.802 80.5124 135.499C82.3219 137.197 84.47 138.543 86.8341 139.462C89.1983 140.38 91.7322 140.853 94.2911 140.853C96.85 140.853 99.3839 140.38 101.748 139.462C104.112 138.543 106.26 137.197 108.07 135.499C109.879 133.802 111.315 131.787 112.294 129.57C112.795 128.435 113.172 127.259 113.42 126.059C113.813 124.162 115.348 122.575 117.285 122.575Z" fill="url(#paint1_linear_1_604)"/>
<path d="M117.285 122.575C119.223 122.575 120.82 124.155 120.53 126.07C120.218 128.133 119.63 130.155 118.776 132.088C117.444 135.104 115.492 137.845 113.031 140.153C110.57 142.461 107.648 144.292 104.433 145.542C101.218 146.791 97.7714 147.434 94.2911 147.434C90.8108 147.434 87.3646 146.791 84.1492 145.542C80.9338 144.292 78.0123 142.461 75.5513 140.153C73.0904 137.845 71.1383 135.104 69.8064 132.088C68.9527 130.155 68.3645 128.133 68.0523 126.07C67.7623 124.155 69.3597 122.575 71.2971 122.575C73.2345 122.575 74.7696 124.162 75.1623 126.059C75.4107 127.259 75.7873 128.435 76.2884 129.57C77.2676 131.787 78.703 133.802 80.5124 135.499C82.3219 137.197 84.47 138.543 86.8341 139.462C89.1983 140.38 91.7322 140.853 94.2911 140.853C96.85 140.853 99.3839 140.38 101.748 139.462C104.112 138.543 106.26 137.197 108.07 135.499C109.879 133.802 111.315 131.787 112.294 129.57C112.795 128.435 113.172 127.259 113.42 126.059C113.813 124.162 115.348 122.575 117.285 122.575Z" stroke="url(#paint2_linear_1_604)" stroke-width="9.03945" stroke-linejoin="round" mask="url(#path-10-inside-1_1_604)"/>
</g>
<g filter="url(#filter6_i_1_604)">
<path d="M89.5607 39.7839C97.2594 34.3706 94.1039 22.0936 86.8922 15.7397C79.6872 9.36494 69.1742 6.07119 68.1784 6.77596C67.1827 7.48073 64.5539 21.4143 70.7401 31.1539C76.9263 40.8935 84.8563 43.0966 89.5607 39.7839Z" fill="url(#paint3_linear_1_604)"/>
</g>
<path d="M89.273 39.5653L90.3505 38.7487C93.7863 43.32 95.747 45.0624 95.7678 45.0691L94.8797 46.0842C94.7959 46.0229 92.8073 44.2601 89.273 39.5653Z" fill="#318C1C"/>
<path d="M80.5103 15.2668C80.4323 15.1153 80.4369 14.9214 80.532 14.7678C80.6884 14.5304 80.9992 14.4574 81.2295 14.6C82.7161 15.5239 84.8761 17.1461 86.7768 19.6512C89.0647 22.671 90.3751 26.1945 90.6793 30.132C90.7036 30.4157 90.4916 30.6469 90.208 30.6711C89.9243 30.6954 89.6931 30.4834 89.6689 30.1997C89.0404 21.8124 83.7844 17.3603 80.7135 15.4583C80.6159 15.404 80.5458 15.3356 80.5103 15.2668Z" fill="url(#paint4_linear_1_604)"/>
<g filter="url(#filter7_f_1_604)">
<ellipse cx="95.6241" cy="45.7927" rx="4.54204" ry="1.20565" fill="#744500" fill-opacity="0.6"/>
</g>
<path d="M154.086 131.924C153.415 131.924 152.791 131.493 152.575 130.797C152.336 129.958 152.791 129.094 153.631 128.831C167.061 124.778 175.91 110.22 179.963 85.5184C180.107 84.655 180.923 84.0795 181.786 84.2233C182.649 84.3672 183.225 85.1826 183.081 86.046C180.851 99.716 177.133 110.532 172.049 118.206C167.421 125.161 161.545 129.766 154.566 131.876C154.398 131.9 154.254 131.924 154.086 131.924Z" fill="#1D1D1D"/>
<path d="M180.732 94.2239C180.468 94.2239 180.204 94.1999 179.965 94.1519C177.447 93.7202 174.76 91.0342 175.48 84.8468C175.576 83.9834 176.367 83.3598 177.231 83.4558C178.094 83.5517 178.718 84.3431 178.622 85.2065C178.19 88.9238 179.293 90.8184 180.492 91.0342C181.859 91.274 183.73 89.4993 184.473 86.1658C184.665 85.3264 185.505 84.7748 186.344 84.9667C187.183 85.1585 187.735 85.9979 187.543 86.8373C186.392 92.0415 183.346 94.2239 180.732 94.2239Z" fill="#1D1D1D"/>
<path d="M34.5592 131.924C34.4153 131.924 34.2474 131.9 34.1035 131.852C27.1246 129.742 21.225 125.137 16.6203 118.182C11.5361 110.508 7.8188 99.6918 5.58844 86.0218C5.44455 85.1584 6.02012 84.343 6.88348 84.1992C7.74685 84.0553 8.56226 84.6308 8.70615 85.4942C12.7592 110.196 21.6087 124.753 35.0388 128.806C35.8782 129.046 36.3339 129.934 36.094 130.773C35.8542 131.468 35.2307 131.924 34.5592 131.924Z" fill="#1D1D1D"/>
<path d="M7.91435 94.2235C5.30027 94.2235 2.23053 92.0411 1.07937 86.8609C0.887514 86.0215 1.41513 85.1581 2.27849 84.9902C3.11788 84.7984 3.98124 85.326 4.14912 86.1894C4.89257 89.5469 6.76319 91.2976 8.13019 91.0578C9.3293 90.8419 10.4325 88.9473 10.0008 85.2301C9.90488 84.3667 10.5284 83.5753 11.3918 83.4794C12.2552 83.3834 13.0466 84.007 13.1425 84.8703C13.862 91.0578 11.176 93.7438 8.6578 94.1755C8.44196 94.1995 8.17816 94.2235 7.91435 94.2235Z" fill="#1D1D1D"/>
<g filter="url(#filter8_f_1_604)">
<path d="M77.0527 184.225C79.6285 191.044 90.3485 193.659 95.3866 194.114C108.411 194.114 114.341 186.616 115.678 182.867C140.473 176.135 149.312 148.056 151.881 136.761C131.611 162.751 77.2904 171.046 51.415 170.041C52.0767 174.91 68.7825 181.526 77.0527 184.225Z" fill="#EBAD1E"/>
</g>
<defs>
<filter id="filter0_iii_1_604" x="30.963" y="36.8646" width="130.366" height="162.402" filterUnits="userSpaceOnUse" color-interpolation-filters="sRGB">
<feFlood flood-opacity="0" result="BackgroundImageFix"/>
<feBlend mode="normal" in="SourceGraphic" in2="BackgroundImageFix" result="shape"/>
<feColorMatrix in="SourceAlpha" type="matrix" values="0 0 0 0 0 0 0 0 0 0 0 0 0 0 0 0 0 0 127 0" result="hardAlpha"/>
<feMorphology radius="2.70941" operator="erode" in="SourceAlpha" result="effect1_innerShadow_1_604"/>
<feOffset dx="7.11221" dy="4.40279"/>
<feGaussianBlur stdDeviation="8.12823"/>
<feComposite in2="hardAlpha" operator="arithmetic" k2="-1" k3="1"/>
<feColorMatrix type="matrix" values="0 0 0 0 0.682806 0 0 0 0 0.0652778 0 0 0 0 0.783333 0 0 0 0.14 0"/>
<feBlend mode="normal" in2="shape" result="effect1_innerShadow_1_604"/>
<feColorMatrix in="SourceAlpha" type="matrix" values="0 0 0 0 0 0 0 0 0 0 0 0 0 0 0 0 0 0 127 0" result="hardAlpha"/>
<feOffset dy="-6.09618"/>
<feGaussianBlur stdDeviation="5.24949"/>
<feComposite in2="hardAlpha" operator="arithmetic" k2="-1" k3="1"/>
<feColorMatrix type="matrix" values="0 0 0 0 0.943639 0 0 0 0 0.223611 0 0 0 0 0.958333 0 0 0 0.44 0"/>
<feBlend mode="normal" in2="effect1_innerShadow_1_604" result="effect2_innerShadow_1_604"/>
<feColorMatrix in="SourceAlpha" type="matrix" values="0 0 0 0 0 0 0 0 0 0 0 0 0 0 0 0 0 0 127 0" result="hardAlpha"/>
<feOffset dx="-3.72544" dy="5.41882"/>
<feGaussianBlur stdDeviation="5.24949"/>
<feComposite in2="hardAlpha" operator="arithmetic" k2="-1" k3="1"/>
<feColorMatrix type="matrix" values="0 0 0 0 1 0 0 0 0 1 0 0 0 0 1 0 0 0 0.59 0"/>
<feBlend mode="normal" in2="effect2_innerShadow_1_604" result="effect3_innerShadow_1_604"/>
</filter>
<filter id="filter1_di_1_604" x="91.6212" y="91.5537" width="42.3211" height="39.6601" filterUnits="userSpaceOnUse" color-interpolation-filters="sRGB">
<feFlood flood-opacity="0" result="BackgroundImageFix"/>
<feColorMatrix in="SourceAlpha" type="matrix" values="0 0 0 0 0 0 0 0 0 0 0 0 0 0 0 0 0 0 127 0" result="hardAlpha"/>
<feOffset dy="1.64354"/>
<feGaussianBlur stdDeviation="3.28707"/>
<feColorMatrix type="matrix" values="0 0 0 0 0 0 0 0 0 0 0 0 0 0 0 0 0 0 0.25 0"/>
<feBlend mode="normal" in2="BackgroundImageFix" result="effect1_dropShadow_1_604"/>
<feBlend mode="normal" in="SourceGraphic" in2="effect1_dropShadow_1_604" result="shape"/>
<feColorMatrix in="SourceAlpha" type="matrix" values="0 0 0 0 0 0 0 0 0 0 0 0 0 0 0 0 0 0 127 0" result="hardAlpha"/>
<feOffset dy="-1.45864"/>
<feGaussianBlur stdDeviation="3.6466"/>
<feComposite in2="hardAlpha" operator="arithmetic" k2="-1" k3="1"/>
<feColorMatrix type="matrix" values="0 0 0 0 0 0 0 0 0 0 0 0 0 0 0 0 0 0 0.25 0"/>
<feBlend mode="normal" in2="shape" result="effect2_innerShadow_1_604"/>
</filter>
<filter id="filter2_i_1_604" x="105.022" y="103.312" width="15.5098" height="15.5097" filterUnits="userSpaceOnUse" color-interpolation-filters="sRGB">
<feFlood flood-opacity="0" result="BackgroundImageFix"/>
<feBlend mode="normal" in="SourceGraphic" in2="BackgroundImageFix" result="shape"/>
<feColorMatrix in="SourceAlpha" type="matrix" values="0 0 0 0 0 0 0 0 0 0 0 0 0 0 0 0 0 0 127 0" result="hardAlpha"/>
<feMorphology radius="12.8197" operator="dilate" in="SourceAlpha" result="effect1_innerShadow_1_604"/>
<feOffset dx="4.45904" dy="-13.3771"/>
<feGaussianBlur stdDeviation="5.01642"/>
<feComposite in2="hardAlpha" operator="arithmetic" k2="-1" k3="1"/>
<feColorMatrix type="matrix" values="0 0 0 0 0.462111 0 0 0 0 0.203767 0 0 0 0 0.504167 0 0 0 0.35 0"/>
<feBlend mode="normal" in2="shape" result="effect1_innerShadow_1_604"/>
</filter>
<filter id="filter3_di_1_604" x="54.2296" y="91.5536" width="42.3211" height="39.6599" filterUnits="userSpaceOnUse" color-interpolation-filters="sRGB">
<feFlood flood-opacity="0" result="BackgroundImageFix"/>
<feColorMatrix in="SourceAlpha" type="matrix" values="0 0 0 0 0 0 0 0 0 0 0 0 0 0 0 0 0 0 127 0" result="hardAlpha"/>
<feOffset dy="1.64354"/>
<feGaussianBlur stdDeviation="3.28707"/>
<feColorMatrix type="matrix" values="0 0 0 0 0 0 0 0 0 0 0 0 0 0 0 0 0 0 0.25 0"/>
<feBlend mode="normal" in2="BackgroundImageFix" result="effect1_dropShadow_1_604"/>
<feBlend mode="normal" in="SourceGraphic" in2="effect1_dropShadow_1_604" result="shape"/>
<feColorMatrix in="SourceAlpha" type="matrix" values="0 0 0 0 0 0 0 0 0 0 0 0 0 0 0 0 0 0 127 0" result="hardAlpha"/>
<feOffset dy="-1.45864"/>
<feGaussianBlur stdDeviation="3.6466"/>
<feComposite in2="hardAlpha" operator="arithmetic" k2="-1" k3="1"/>
<feColorMatrix type="matrix" values="0 0 0 0 0 0 0 0 0 0 0 0 0 0 0 0 0 0 0.25 0"/>
<feBlend mode="normal" in2="shape" result="effect2_innerShadow_1_604"/>
</filter>
<filter id="filter4_i_1_604" x="67.6309" y="103.312" width="15.5098" height="15.5097" filterUnits="userSpaceOnUse" color-interpolation-filters="sRGB">
<feFlood flood-opacity="0" result="BackgroundImageFix"/>
<feBlend mode="normal" in="SourceGraphic" in2="BackgroundImageFix" result="shape"/>
<feColorMatrix in="SourceAlpha" type="matrix" values="0 0 0 0 0 0 0 0 0 0 0 0 0 0 0 0 0 0 127 0" result="hardAlpha"/>
<feMorphology radius="12.8197" operator="dilate" in="SourceAlpha" result="effect1_innerShadow_1_604"/>
<feOffset dx="4.45904" dy="-13.3771"/>
<feGaussianBlur stdDeviation="5.01642"/>
<feComposite in2="hardAlpha" operator="arithmetic" k2="-1" k3="1"/>
<feColorMatrix type="matrix" values="0 0 0 0 0.462111 0 0 0 0 0.203767 0 0 0 0 0.504167 0 0 0 0.35 0"/>
<feBlend mode="normal" in2="shape" result="effect1_innerShadow_1_604"/>
</filter>
<filter id="filter5_diiii_1_604" x="54.3224" y="115.727" width="79.9382" height="52.2508" filterUnits="userSpaceOnUse" color-interpolation-filters="sRGB">
<feFlood flood-opacity="0" result="BackgroundImageFix"/>
<feColorMatrix in="SourceAlpha" type="matrix" values="0 0 0 0 0 0 0 0 0 0 0 0 0 0 0 0 0 0 127 0" result="hardAlpha"/>
<feOffset dy="6.84807"/>
<feGaussianBlur stdDeviation="6.84807"/>
<feColorMatrix type="matrix" values="0 0 0 0 0.0298758 0 0 0 0 0.0216858 0 0 0 0 0.0308333 0 0 0 0.24 0"/>
<feBlend mode="normal" in2="BackgroundImageFix" result="effect1_dropShadow_1_604"/>
<feBlend mode="normal" in="SourceGraphic" in2="effect1_dropShadow_1_604" result="shape"/>
<feColorMatrix in="SourceAlpha" type="matrix" values="0 0 0 0 0 0 0 0 0 0 0 0 0 0 0 0 0 0 127 0" result="hardAlpha"/>
<feOffset dy="2.13051"/>
<feGaussianBlur stdDeviation="1.06526"/>
<feComposite in2="hardAlpha" operator="arithmetic" k2="-1" k3="1"/>
<feColorMatrix type="matrix" values="0 0 0 0 0.17328 0 0 0 0 0.125777 0 0 0 0 0.178833 0 0 0 1 0"/>
<feBlend mode="normal" in2="shape" result="effect2_innerShadow_1_604"/>
<feColorMatrix in="SourceAlpha" type="matrix" values="0 0 0 0 0 0 0 0 0 0 0 0 0 0 0 0 0 0 127 0" result="hardAlpha"/>
<feOffset dy="-1.06526"/>
<feGaussianBlur stdDeviation="0.532628"/>
<feComposite in2="hardAlpha" operator="arithmetic" k2="-1" k3="1"/>
<feColorMatrix type="matrix" values="0 0 0 0 0.119503 0 0 0 0 0.086743 0 0 0 0 0.123333 0 0 0 1 0"/>
<feBlend mode="normal" in2="effect2_innerShadow_1_604" result="effect3_innerShadow_1_604"/>
<feColorMatrix in="SourceAlpha" type="matrix" values="0 0 0 0 0 0 0 0 0 0 0 0 0 0 0 0 0 0 127 0" result="hardAlpha"/>
<feMorphology radius="10.8679" operator="dilate" in="SourceAlpha" result="effect4_innerShadow_1_604"/>
<feOffset dx="3.78013" dy="-3.69796"/>
<feGaussianBlur stdDeviation="4.25265"/>
<feComposite in2="hardAlpha" operator="arithmetic" k2="-1" k3="1"/>
<feColorMatrix type="matrix" values="0 0 0 0 0.462111 0 0 0 0 0.203767 0 0 0 0 0.504167 0 0 0 0.35 0"/>
<feBlend mode="normal" in2="effect3_innerShadow_1_604" result="effect4_innerShadow_1_604"/>
<feColorMatrix in="SourceAlpha" type="matrix" values="0 0 0 0 0 0 0 0 0 0 0 0 0 0 0 0 0 0 127 0" result="hardAlpha"/>
<feMorphology radius="10.8679" operator="dilate" in="SourceAlpha" result="effect5_innerShadow_1_604"/>
<feOffset dx="3.78013" dy="-3.69796"/>
<feGaussianBlur stdDeviation="4.25265"/>
<feComposite in2="hardAlpha" operator="arithmetic" k2="-1" k3="1"/>
<feColorMatrix type="matrix" values="0 0 0 0 0.462111 0 0 0 0 0.203767 0 0 0 0 0.504167 0 0 0 0.35 0"/>
<feBlend mode="normal" in2="effect4_innerShadow_1_604" result="effect5_innerShadow_1_604"/>
</filter>
<filter id="filter6_i_1_604" x="66.7656" y="6.68216" width="30.0474" height="35.9371" filterUnits="userSpaceOnUse" color-interpolation-filters="sRGB">
<feFlood flood-opacity="0" result="BackgroundImageFix"/>
<feBlend mode="normal" in="SourceGraphic" in2="BackgroundImageFix" result="shape"/>
<feColorMatrix in="SourceAlpha" type="matrix" values="0 0 0 0 0 0 0 0 0 0 0 0 0 0 0 0 0 0 127 0" result="hardAlpha"/>
<feOffset dx="2.78767" dy="1.39384"/>
<feGaussianBlur stdDeviation="3.87176"/>
<feComposite in2="hardAlpha" operator="arithmetic" k2="-1" k3="1"/>
<feColorMatrix type="matrix" values="0 0 0 0 0 0 0 0 0 0 0 0 0 0 0 0 0 0 0.25 0"/>
<feBlend mode="normal" in2="shape" result="effect1_innerShadow_1_604"/>
</filter>
<filter id="filter7_f_1_604" x="89.4771" y="42.9821" width="12.2939" height="5.62124" filterUnits="userSpaceOnUse" color-interpolation-filters="sRGB">
<feFlood flood-opacity="0" result="BackgroundImageFix"/>
<feBlend mode="normal" in="SourceGraphic" in2="BackgroundImageFix" result="shape"/>
<feGaussianBlur stdDeviation="0.802485" result="effect1_foregroundBlur_1_604"/>
</filter>
<filter id="filter8_f_1_604" x="35.3653" y="120.712" width="132.565" height="89.4522" filterUnits="userSpaceOnUse" color-interpolation-filters="sRGB">
<feFlood flood-opacity="0" result="BackgroundImageFix"/>
<feBlend mode="normal" in="SourceGraphic" in2="BackgroundImageFix" result="shape"/>
<feGaussianBlur stdDeviation="8.02485" result="effect1_foregroundBlur_1_604"/>
</filter>
<radialGradient id="paint0_radial_1_604" cx="0" cy="0" r="1" gradientUnits="userSpaceOnUse" gradientTransform="translate(94.3933 171.938) rotate(84.5862) scale(22.0089 34.0873)">
<stop stop-color="#FFBB0C"/>
<stop offset="1" stop-color="#FFC907"/>
</radialGradient>
<linearGradient id="paint1_linear_1_604" x1="94.2911" y1="97.7168" x2="94.2911" y2="147.434" gradientUnits="userSpaceOnUse">
<stop stop-color="#201721"/>
<stop offset="1" stop-color="#2B1F2C"/>
</linearGradient>
<linearGradient id="paint2_linear_1_604" x1="94.2911" y1="97.7168" x2="94.2911" y2="147.434" gradientUnits="userSpaceOnUse">
<stop stop-color="#201721"/>
<stop offset="1" stop-color="#2B1F2C"/>
</linearGradient>
<linearGradient id="paint3_linear_1_604" x1="89.5844" y1="17.7982" x2="69.1799" y2="28.3128" gradientUnits="userSpaceOnUse">
<stop stop-color="#008B0E"/>
<stop offset="1" stop-color="#038B00" stop-opacity="0"/>
</linearGradient>
<linearGradient id="paint4_linear_1_604" x1="81.4297" y1="14.9014" x2="90.7077" y2="28.6458" gradientUnits="userSpaceOnUse">
<stop stop-color="white"/>
<stop offset="1" stop-color="white" stop-opacity="0"/>
</linearGradient>
</defs>
</svg>
